<svg xmlns="http://www.w3.org/2000/svg" width="256" height="256"><path fill-opacity=".016" d="M0 128.004v128.004l128.25-.254 128.25-.254.254-127.75L257.008 0H0v128.004m.485.496c0 70.4.119 99.053.265 63.672.146-35.38.146-92.98 0-128C.604 29.153.485 58.1.485 128.5" fill="#1976D2" fill-rule="evenodd"/><path fill-opacity=".354" d="M113.585 1.107C91.386 4.344 72.79 13.87 56.46 30.367 42.531 44.439 33.574 60.712 29.409 79.515c-2.783 12.563-2.375 33.229.901 45.691 4.681 17.8 13.18 32.659 26.332 46.036 8.823 8.974 16.657 14.543 28.414 20.202 15.637 7.526 22.481 8.949 42.944 8.932 16.164-.015 18.187-.224 26.5-2.743 18.07-5.475 31.555-13.434 44.079-26.016 9.352-9.396 15.129-17.578 20.473-28.998 6.001-12.825 8.091-22.029 8.679-38.217.59-16.265-.828-25.415-6.13-39.545-16.264-43.349-62.164-70.438-108.016-63.75M109 11.869c-18.452 4.043-33.641 12.72-47.093 26.903-9.558 10.078-15.865 20.37-19.971 32.587-17.468 51.982 14.429 107.445 67.974 118.198 12.732 2.557 32.716 1.63 44.09-2.045 15.378-4.969 25.162-10.741 36.362-21.451 20.508-19.611 30.412-46.464 27.53-74.641-3.82-37.331-28.909-67.161-65.61-78.005-12.074-3.568-30.976-4.243-43.282-1.546m3.069 4.158c-18.62 3.909-33.377 12.196-46.709 26.231-16.605 17.48-24.432 39.061-23.05 63.551.705 12.494 3.083 21.503 8.666 32.831 12.964 26.304 38.327 43.996 67.871 47.343 41.789 4.734 81.044-22.699 92.271-64.483 3.011-11.208 3.002-30.63-.02-42-2.787-10.485-9.804-24.396-16.38-32.474-10.852-13.33-27.405-24.325-43.757-29.065-8.424-2.442-31.099-3.569-38.892-1.934M84 52.5V56h88v-7H84v3.5m.192 56.25c.297 26.715.394 27.91 2.601 32.045 5.167 9.677 14.2 16.324 24.207 17.814l4.5.669-5.184-4.889c-2.851-2.689-7.126-6.239-9.5-7.89-2.817-1.958-5.271-4.886-7.066-8.429L91 132.641V88h15.836l.401 22.75c.461 26.164 1.124 29.098 8.402 37.194 6.639 7.383 13.811 10.556 23.861 10.555 6.541 0 9.019-.478 13.586-2.62 6.804-3.189 12.008-8.227 15.664-15.162l2.75-5.217.322-27.25.321-27.25H141v25.804c0 25.729-.007 25.818-2.579 30.978-1.418 2.846-4.375 6.598-6.572 8.337l-3.994 3.164-2.677-1.985c-4.618-3.421-8.946-9.989-10.086-15.304-.61-2.844-1.092-15.228-1.092-28.043V81H83.884l.308 27.75M148 109.818c0 25.214-.759 29.168-7.153 37.257l-4.115 5.205 4.884-.471c6.203-.6 11.234-2.992 15.717-7.476 6.808-6.807 7.133-8.27 7.469-33.583l.303-22.75H148v21.818M82.212 227.941c-.392 1.05-.487 6.708-.212 12.574.477 10.164.632 10.778 3.306 13.075 4.292 3.687 11.831 3.427 15.803-.545l2.955-2.955-.282-11.795c-.232-9.692-.549-11.795-1.782-11.795-1.225 0-1.552 2.012-1.786 10.961C99.884 250.121 98.951 252 93 252c-6.044 0-7-1.943-7-14.222 0-8.585-.288-10.675-1.538-11.154-.961-.369-1.806.126-2.25 1.317m32.859-.189c-7.137 3.639-9.76 11.537-6.589 19.841 4.638 12.144 21.206 11.05 23.511-1.553 1.144-6.26.58-7.04-5.1-7.04-4.226 0-4.893.272-4.893 2 0 1.556.667 2 3 2 2.473 0 3 .408 3 2.326 0 3.429-3.967 6.674-8.159 6.674-5.036 0-7.121-2.726-7.647-9.997-.4-5.53-.227-6.124 2.612-8.963 3.414-3.414 5.89-3.765 10.334-1.468 3.403 1.76 6.119 1.266 5.266-.956-.601-1.567-7.327-4.617-10.176-4.614-.952 0-3.273.788-5.159 1.75m28.22-.502C142.102 228.808 133 253.183 133 254.809c0 2.573 3.819 1.149 4.85-1.809 1.016-2.915 1.228-3 7.5-3s6.484.085 7.5 3c.969 2.778 3.414 4.002 4.495 2.25.254-.412-1.696-6.495-4.333-13.518-5.775-15.373-7.303-17.65-9.721-14.482m20.066-.258c-2.714 1.095-5.357 4.823-5.357 7.556 0 2.724 3.428 5.866 8.673 7.95 4.946 1.965 5.952 3.9 3.762 7.242-1.648 2.515-1.538 2.503-9.897 1.091-3.151-.532-3.19 2.971-.046 4.166 7.732 2.94 15.508-1.037 15.508-7.931 0-4.401-1.555-6.089-8.25-8.959-4.996-2.141-6.169-4.684-3.271-7.09 1.121-.93 2.247-.959 4.649-.122 4.307 1.501 4.872 1.409 4.872-.797 0-1.235-1.105-2.288-3.149-3-3.648-1.272-4.574-1.285-7.494-.106m-18.924 7.508c-.412 1.1-1.572 4.137-2.577 6.75l-1.827 4.75h5.053c5.678 0 5.594.406 1.878-9-1.511-3.823-1.891-4.199-2.527-2.5" fill="#1976D2" fill-rule="evenodd"/><path fill-opacity=".167" d="M117.278 1.068c-32.825 3.176-64.259 24.88-78.706 54.344-8.67 17.682-11.114 29.49-10.308 49.803.614 15.484 2.767 24.788 8.628 37.296 15.906 33.942 47.663 55.628 85.108 58.118 31.331 2.084 63.756-12.251 83.484-36.909 31.956-39.94 29.472-95.986-5.875-132.579-16.857-17.45-37.907-27.558-62.69-30.101-5.572-.572-10.421-.979-10.775-.904-.354.075-4.344.494-8.866.932M105.5 12.379c-26.798 7.14-47.112 23.625-59.417 48.219-6.943 13.875-8.582 21.496-8.582 39.902 0 13.64.333 17.149 2.257 23.789 4.562 15.742 11.14 27.308 22.217 39.061 11.448 12.147 27.014 21.361 43.525 25.763 10.873 2.898 30.638 3.146 41.891.526 54.357-12.66 84.706-68.474 65.641-120.714-7.759-21.26-25.44-40.569-46.157-50.407-13.254-6.294-19.627-7.701-36.875-8.141-13.941-.355-16.405-.154-24.5 2.002m9.16 3.669C81.043 21.69 53.527 46.698 44.845 79.5c-3.278 12.386-3.046 31.982.519 43.797 4.904 16.251 12.458 28.576 24.449 39.888 17.04 16.075 38.674 23.816 62.958 22.527 13.045-.693 22.684-3.303 34.248-9.276 45.036-23.26 59.887-80.132 32.049-122.726-9.282-14.201-24.657-26.707-40.21-32.705-13.494-5.203-31.02-7.169-44.198-4.957M83 52.5V56h89v-7H83v3.5m.403 28.892c-.305.794-.407 13.068-.228 27.276L83.5 134.5l2.794 5.69c5.045 10.273 16.885 18.81 26.087 18.81h3.025l-3.953-4.086c-2.174-2.247-6.203-5.62-8.953-7.495C92.065 140.303 91 136.78 91 109.374V88H106.841l.334 23.75c.333 23.747.333 23.751 3.113 29.034 6.012 11.427 15.269 17.452 27.712 18.038 13.212.622 24.161-5.462 30.534-16.967l2.966-5.355.307-28.25.307-28.25H141.119l-.309 26.75c-.276 23.789-.516 27.137-2.17 30.25-2.343 4.408-8.598 11-10.439 11-2.558 0-7.165-4.082-9.947-8.815L115.5 134.5l-.5-27-.5-27-15.271-.276c-12.571-.227-15.37-.021-15.826 1.168m65.435 29.318c-.348 22.519-.386 22.861-3.152 28.79-1.539 3.3-3.978 7.233-5.42 8.74-1.441 1.506-2.351 3.008-2.022 3.337.328.329 3.075.083 6.104-.545 9.932-2.062 17.528-9.616 19.639-19.532.606-2.843.946-13.197.789-24l-.276-19-7.654-.29-7.655-.291-.353 22.791M82 237.476c0 12.929 1.179 15.898 7.006 17.644 3.1.929 4.888.929 7.988 0 5.827-1.746 7.006-4.715 7.006-17.644 0-9.577-.172-10.59-1.75-10.289-1.507.288-1.819 1.9-2.25 11.613-.523 11.792-.812 12.499-5.642 13.79-1.179.315-3.541-.15-5.25-1.034L86 249.949l-.171-9.225c-.248-13.395-.214-13.175-2.098-13.537-1.554-.299-1.731.756-1.731 10.289m31.775-8.917c-4.866 2.64-7.363 10.219-5.632 17.094 3.738 14.847 24.92 12.641 23.664-2.463-.305-3.661-.342-3.69-4.807-3.69-3.333 0-4.5.389-4.5 1.5 0 .955.981 1.512 2.7 1.533 3.756.046 4.127.748 2.482 4.687-1.927 4.611-6.799 6.775-10.569 4.694-3.943-2.176-6.439-8.025-5.584-13.083 1.326-7.848 7.88-11.065 14.536-7.134 3.086 1.823 4.549 1.346 3.584-1.169-1.334-3.476-10.909-4.664-15.874-1.969m24.634 11.642c-5.392 14.607-5.471 14.945-3.645 15.554.721.24 1.918-1.143 2.783-3.214l1.519-3.635 6.217.297c5.944.284 6.28.44 7.647 3.547 1.434 3.257 4.07 4.465 4.07 1.864 0-.762-2.184-7.174-4.854-14.25-6.657-17.641-7.282-17.648-13.737-.163m23.504-11.919c-5.7 4.376-4.272 9.785 3.49 13.218 6.199 2.741 7.021 3.676 6.179 7.028-.914 3.644-3.825 4.779-8.594 3.35-4.613-1.382-6.131-.592-3.643 1.896 1.179 1.179 3.327 1.726 6.777 1.726 4.295 0 5.413-.42 7.465-2.806 4.564-5.306 2.918-10.37-4.393-13.515-6.238-2.684-7.704-4.358-6.228-7.115 1.216-2.273 4.059-2.656 7.207-.971 1.499.802 2.346.784 3.184-.068 2.936-2.98-7.788-5.55-11.444-2.743m-17.603 5.468c-.344.963-1.455 3.904-2.468 6.537s-1.842 4.995-1.842 5.25c0 .255 2.25.463 5 .463s5-.363 5-.806c0-1.345-4.152-13.194-4.623-13.194-.242 0-.722.787-1.067 1.75" fill="#1976D2" fill-rule="evenodd"/><path fill-opacity=".519" d="M112.5 1.972c-8.198 1.256-17.496 4.128-26.124 8.07-37.446 17.11-60.46 55.14-58.031 95.894 2.606 43.704 31.574 79.725 73.281 91.123 9.798 2.678 31.437 3.711 42.311 2.021 21.168-3.291 42.269-14.7 57.151-30.901 10.19-11.093 15.307-19.534 20.418-33.679 10.231-28.318 7.039-60.03-8.675-86.179C199.263 25.744 174.469 8.408 148 2.992c-8.974-1.837-26.821-2.349-35.5-1.02m2 8.069C97.162 12.739 79.311 21.285 66.248 33.14c-21.185 19.227-32.723 49.723-29.34 77.545 4.574 37.616 30.786 68.055 67.592 78.493 10.805 3.064 34.335 3.294 44.916.438 34.834-9.401 60.998-36.65 68.004-70.824 1.813-8.845 2.065-24.689.529-33.358-6.325-35.709-32.963-64.501-67.938-73.431-9.68-2.472-26.328-3.392-35.511-1.962m3.773 6.105C91.51 18.536 65.336 36.412 52.593 61c-7.731 14.919-9.097 20.948-9.065 40 .028 16.084.113 16.747 3.39 26.291 9.402 27.383 29.727 46.886 57.631 55.3 7.867 2.372 10.647 2.701 22.951 2.714 11.31.013 15.537-.404 22-2.166 37.452-10.211 63.508-44.337 63.479-83.139-.016-21.989-10.325-45.639-26.612-61.053-18.345-17.361-41.646-25.164-68.094-22.801M83 52.5v4.521l44.75-.261 44.75-.26v-8l-44.75-.26L83 47.979V52.5m.192 55.25l.308 27.75 2.943 5.808c3.229 6.374 8.29 11.495 14.479 14.652 4.156 2.121 13.853 4.598 14.696 3.755.741-.741-8.762-10.031-11.938-11.672-4.606-2.378-9.459-8.558-11.124-14.165-1.179-3.973-1.556-10.035-1.556-25.06V89h15.869l.316 23.75.315 23.75 2.938 5.304c8.05 14.53 24.871 21.135 40.324 15.833 6.992-2.399 15.321-10.07 18.944-17.447l2.794-5.69.334-27.275.334-27.275-16.334.275-16.334.275-.5 27-.5 27-2.749 4.677c-2.776 4.722-7.044 8.823-9.183 8.823-1.647 0-8-6.845-10.208-11-1.654-3.113-1.894-6.461-2.17-30.25L114.881 80H82.884l.308 27.75M149 109.568c0 23.767-.749 27.935-6.526 36.334L138.967 151l3.266-.022c7.277-.049 16.344-6.637 19.896-14.456 1.59-3.499 1.83-6.88 1.849-26.022l.022-22h-15v21.068M82.667 227.667c-1.282 1.282-.696 18.327.748 21.785 1.744 4.173 4.172 5.548 9.797 5.548 5.116 0 8.201-1.876 9.577-5.826 1.455-4.172 1.031-21.396-.539-21.922-.948-.317-1.25 2.15-1.25 10.21 0 9.952-.156 10.785-2.455 13.083-3.247 3.248-7.843 3.248-11.09 0-2.296-2.295-2.455-3.136-2.455-13 0-9.656-.488-11.723-2.333-9.878m32.363.612c-8.198 4.149-9.53 17.646-2.394 24.259 3.841 3.561 12.027 3.526 15.618-.065 2.17-2.17 4.75-10.822 3.571-11.974-1.052-1.027-9.227-.792-9.583.276-.272.815.791 1.225 3.175 1.225 3.184 0 3.583.287 3.583 2.577 0 3.695-5.034 8.423-8.969 8.423-8.383 0-12.296-14.644-5.595-20.94 2.896-2.721 8.212-2.992 11.854-.606 1.667 1.092 2.746 1.296 3.176.6 1.038-1.678-.26-2.903-4.252-4.011-4.84-1.344-7.167-1.29-10.184.236m28.574-.448c-.895 1.449-9.604 25.221-9.604 26.216 0 2.142 2.251.749 3.306-2.047 1.105-2.926 1.299-3 7.9-3h6.767l1.537 3.677c1.02 2.444 1.87 3.343 2.533 2.68.662-.662-.732-5.586-4.156-14.677-4.687-12.443-6.651-15.489-8.283-12.849m17.972 1.502c-4.505 4.505-2.4 10.496 4.273 12.161 5.707 1.424 7.991 6.524 4.489 10.025-1.662 1.662-5.793 1.673-9.588.026-1.226-.532-1.75-.31-1.75.741 0 1.936 2.147 2.722 7.332 2.682 4.813-.037 7.16-1.501 8.639-5.392 1.395-3.669-.503-7.631-4.48-9.351a134.339 134.339 0 01-5.491-2.543c-5.627-2.811-1.937-9.602 4.078-7.505 3.49 1.216 5.156.802 4.034-1.003-.453-.729-2.654-1.571-4.892-1.871-3.445-.462-4.463-.151-6.644 2.03m-17.702 4.417c-5.168 13.195-5.161 13.25 1.626 13.25 3.025 0 5.5-.267 5.5-.593 0-1.091-5.254-15.407-5.654-15.407-.218 0-.88 1.238-1.472 2.75" fill="#1976D2" fill-rule="evenodd"/></svg>